<?xml version="1.0" encoding="UTF-8"?>
<svg width="153px" height="51px" viewBox="0 0 153 51" version="1.1" xmlns="http://www.w3.org/2000/svg" xmlns:xlink="http://www.w3.org/1999/xlink">
    <!-- Generator: Sketch 61.2 (89653) - https://sketch.com -->
    <title>Group 2</title>
    <desc>Created with Sketch.</desc>
    <g id="Page-1" stroke="none" stroke-width="1" fill="none" fill-rule="evenodd">
        <g id="Desktop" transform="translate(-964.000000, -289.000000)" fill-rule="nonzero">
            <g id="Maginary" transform="translate(224.000000, 216.000000)">
                <g id="Group-2" transform="translate(740.000000, 73.000000)">
                    <g id="Download_on_the_App_Store_Badge_US-UK_RGB_blk_092917">
                        <g id="Group">
                            <g id="Path">
                                <path d="M140.421832,-0.00016575 L12.156717,-0.00016575 C11.6891745,-0.00016575 11.227242,-0.00016575 10.7609362,0.00255 C10.370595,0.0051 9.98336475,0.01250775 9.589275,0.0187425 C8.73312994,0.0288172996 7.87899825,0.104137231 7.0343025,0.24404775 C6.1907932,0.387004101 5.37370746,0.656517569 4.6106805,1.04347275 C3.84858675,1.43370143 3.1522399,1.9407636 2.54690175,2.54626425 C1.93838568,3.15006217 1.43114056,3.84797088 1.04467125,4.613154 C0.657135308,5.37681413 0.388416635,6.19514633 0.24779625,7.039887 C0.10583895,7.88356076 0.0294504353,8.73696369 0.01931625,9.592437 C0.00748425,9.983352 0.00623475,10.3755675 0,10.7665335 L0,40.237215 C0.00623475,40.6331025 0.00748425,41.0166225 0.01931625,41.4126375 C0.029453543,42.2680684 0.105842059,43.1214287 0.24779625,43.96506 C0.38802834,44.8102945 0.656762901,45.6290965 1.04467125,46.3930425 C1.43096508,47.1557512 1.93828154,47.8508344 2.54690175,48.451275 C3.14994465,49.0594679 3.8467416,49.5668751 4.6106805,49.9541175 C5.37370166,50.3421083 6.19069932,50.613226 7.0343025,50.7583875 C7.87914185,50.8971773 8.7331857,50.9725278 9.589275,50.9838075 C9.98336475,50.9924775 10.370595,50.99745 10.7609363,50.99745 C11.2272292,51 11.6892,51 12.156717,51 L140.421832,51 C140.880067,51 141.345697,51 141.803932,50.99745 C142.192424,50.99745 142.590862,50.9924775 142.979354,50.9838075 C143.833825,50.9731277 144.686261,50.8977724 145.529354,50.7583875 C146.375679,50.6122041 147.195606,50.3411583 147.962309,49.9541175 C148.725559,49.5666509 149.421713,49.0592576 150.024239,48.451275 C150.631289,47.8484828 151.139689,47.153908 151.530779,46.3930425 C151.915777,45.6285407 152.181953,44.8098042 152.320132,43.96506 C152.462313,43.121313 152.541412,42.2681424 152.556772,41.4126375 C152.561744,41.0166225 152.561744,40.6331025 152.561744,40.237215 C152.571689,39.7740075 152.571689,39.31335 152.571689,38.84262 L152.571689,12.1585657 C152.571689,11.691648 152.571689,11.228466 152.561744,10.7665335 C152.561744,10.3755675 152.561744,9.983352 152.556772,9.592386 C152.541415,8.73683862 152.462316,7.88362548 152.320132,7.039836 C152.181568,6.19558404 151.915407,5.37731668 151.530779,4.613103 C150.743753,3.079375 149.495756,1.83093238 147.962309,1.043358 C147.195603,0.65734841 146.375589,0.387906523 145.529354,0.243933 C144.686407,0.103406049 143.833882,0.0280599002 142.979354,0.018564 C142.590862,0.012342 142.192424,0.0048705 141.803932,0.00238425 C141.345697,-0.00016575 140.880067,-0.00016575 140.421832,-0.00016575 L140.421832,-0.00016575 Z" fill="#A6A6A6"></path>
                                <path d="M10.7671582,49.884375 C10.3786912,49.884375 9.99960825,49.8794025 9.6141885,49.8707325 C8.81576026,49.8603294 8.01919815,49.7908219 7.231035,49.66278 C6.49611263,49.5362084 5.78417041,49.3007622 5.1186915,48.9642075 C4.45931467,48.6304414 3.85791,48.1927979 3.3375165,47.6680425 C2.80959042,47.1494684 2.37006784,46.5480111 2.03636625,45.887505 C1.69898756,45.2227062 1.46550142,44.510122 1.34404125,43.774575 C1.21287481,42.9842215 1.14190833,42.1850494 1.13175375,41.38395 C1.12367025,41.1150525 1.11308775,40.2197475 1.11308775,40.2197475 L1.11308775,10.7665335 C1.11308775,10.7665335 1.12435875,9.88498575 1.1318175,9.625995 C1.14154043,8.82616461 1.21209424,8.0282327 1.34286825,7.23910575 C1.46455262,6.50154385 1.69821951,5.78690481 2.03577975,5.11992825 C2.3682549,4.45987841 2.80533734,3.85797187 3.33008325,3.337542 C3.85423936,2.81216731 4.45756781,2.37227025 5.11806675,2.03389275 C5.7820162,1.69841934 6.49261294,1.464634 7.22604975,1.34036925 C8.01680135,1.21104108 8.81612882,1.14112001 9.617325,1.13119275 L10.767783,1.115625 L141.797684,1.115625 L142.961887,1.1318175 C143.755795,1.14125148 144.547862,1.21054876 145.331347,1.33911975 C146.072208,1.46494321 146.790211,1.70035981 147.461744,2.0376285 C148.784963,2.71955721 149.86164,3.79843276 150.540869,5.12303925 C150.873042,5.78541139 151.103104,6.49422111 151.223249,7.22541225 C151.35558,8.02101401 151.429642,8.82521638 151.444844,9.631605 C151.448542,9.992685 151.448542,10.38054 151.448542,10.7665335 C151.458614,11.2446585 151.458614,11.6997443 151.458614,12.1585658 L151.458614,38.84262 C151.458614,39.3058275 151.458614,39.757815 151.448542,40.2135 C151.448542,40.62813 151.448542,41.0079525 151.443569,41.3988675 C151.428696,42.1908665 151.355869,42.9807144 151.225672,43.76208 C151.106701,44.502933 150.874486,45.2210792 150.537172,45.89133 C150.201111,46.5446669 149.764113,47.1409144 149.242282,47.6580975 C148.72142,48.1856729 148.118954,48.6258769 147.458047,48.961785 C146.788373,49.3009269 146.071428,49.5372439 145.331347,49.66278 C144.543243,49.7915052 143.746605,49.8610172 142.948117,49.8707325 C142.574669,49.8794025 142.183627,49.884375 141.803932,49.884375 L140.421832,49.886925 L10.7671582,49.884375 Z" fill="#000000"></path>
                            </g>
                            <g id="_Group_" transform="translate(12.455769, 10.200000)" fill="#FFFFFF">
                                <g id="_Group_2">
                                    <g id="_Group_3">
                                        <path d="M19.1245528,15.683367 C19.1524204,13.5203666 20.2863875,11.5224123 22.1291668,10.3894905 C20.9613594,8.72165378 19.0754806,7.7021199 17.0404378,7.6384485 C14.8994068,7.413717 12.8237705,8.91960675 11.7327403,8.91960675 C10.620596,8.91960675 8.94078352,7.660761 7.13190277,7.69797825 C4.75188738,7.77487148 2.58685567,9.09524499 1.42892977,11.1760125 C-1.03692023,15.445248 0.802382019,21.7195868 3.16445977,25.1705145 C4.34625727,26.8603358 5.72743927,28.7479095 7.53468802,28.680972 C9.30318952,28.6076212 9.96369052,27.55326 12.098423,27.55326 C14.213342,27.55326 14.8330303,28.680972 16.676948,28.6384125 C18.5746325,28.6076085 19.7702638,26.9410815 20.9105983,25.235259 C21.7597178,24.0311996 22.413114,22.7004518 22.8465838,21.2923088 C20.5927109,20.3390311 19.1271834,18.1305438 19.1245528,15.683367 L19.1245528,15.683367 Z" id="_Path_"></path>
                                        <path d="M15.6417245,5.36888475 C16.6764209,4.12676943 17.1861766,2.53024063 17.0627375,0.91834425 C15.4819515,1.08437537 14.021748,1.83988834 12.973073,3.034347 C11.9375546,4.21284101 11.4129634,5.75462666 11.5148428,7.32011925 C13.1168252,7.33661363 14.6378738,6.61744535 15.6417245,5.36888475 L15.6417245,5.36888475 Z" id="_Path_2"></path>
                                    </g>
                                </g>
                                <g id="Group" transform="translate(30.894231, 12.455769)">
                                    <path d="M10.5853942,11.9472845 L4.55030925,11.9472845 L3.10099125,16.2267583 L0.54476925,16.2267583 L6.26110425,0.393808269 L8.91692925,0.393808269 L14.6332642,16.2267583 L12.03345,16.2267583 L10.5853942,11.9472845 Z M5.1753525,9.97252627 L9.9591525,9.97252627 L7.60089975,3.02725702 L7.53490575,3.02725702 L5.1753525,9.97252627 Z" id="Shape"></path>
                                    <path d="M26.9786048,10.4556365 C26.9786048,14.0428235 25.0586333,16.3475263 22.1612468,16.3475263 C20.663613,16.4258682 19.2529238,15.6414449 18.5292435,14.3279263 L18.4744185,14.3279263 L18.4744185,20.0455108 L16.1049585,20.0455108 L16.1049585,4.68326527 L18.398505,4.68326527 L18.398505,6.60323677 L18.4420845,6.60323677 C19.1979151,5.29795286 20.6101254,4.51386729 22.1176673,4.56248452 C25.047375,4.56249727 26.9786048,6.87840727 26.9786048,10.4556365 Z M24.5431508,10.4556365 C24.5431508,8.11856152 23.3353815,6.58207177 21.4926113,6.58207177 C19.6822133,6.58207177 18.4644863,8.15092102 18.4644863,10.4556365 C18.4644863,12.781517 19.6822133,14.339159 21.4926113,14.339159 C23.3353943,14.339159 24.5431508,12.8138893 24.5431508,10.4556365 Z" id="Shape"></path>
                                    <path d="M39.6837757,10.4556365 C39.6837757,14.0428235 37.7638042,16.3475263 34.8664177,16.3475263 C33.368784,16.4258682 31.9580948,15.6414449 31.2344145,14.3279263 L31.1795895,14.3279263 L31.1795895,20.0455108 L28.8101295,20.0455108 L28.8101295,4.68326527 L31.103625,4.68326527 L31.103625,6.60323677 L31.1472045,6.60323677 C31.9030406,5.29795365 33.3152563,4.51387269 34.8228,4.56249727 C37.752597,4.56249727 39.6837757,6.87840727 39.6837757,10.4556365 Z M37.2483345,10.4556365 C37.2483345,8.11856152 36.0405525,6.58207177 34.1977822,6.58207177 C32.3873842,6.58207177 31.1696572,8.15092102 31.1696572,10.4556365 C31.1696572,12.781517 32.3873842,14.339159 34.1977822,14.339159 C36.0405652,14.339159 37.2483345,12.8138893 37.2483345,10.4556365 L37.2483345,10.4556365 Z" id="Shape"></path>
                                    <path d="M48.0808492,11.8152965 C48.2564167,13.3853953 49.7816992,14.4162965 51.8660055,14.4162965 C53.8631782,14.4162965 55.3000395,13.3853443 55.3000395,11.9696353 C55.3000395,10.740701 54.4334347,10.0048603 52.381488,9.50057227 L50.3295412,9.00625477 C47.422197,8.30401027 46.072482,6.94433752 46.072482,4.73798827 C46.072482,2.00619877 48.4531492,0.129806769 51.8336332,0.129806769 C55.1792332,0.129806769 57.472767,2.00619877 57.5499682,4.73798827 L55.1580682,4.73798827 C55.0148857,3.15793177 53.7087502,2.20418077 51.799986,2.20418077 C49.8912217,2.20418077 48.585099,3.16915177 48.585099,4.57364077 C48.585099,5.69300152 49.4193315,6.35166652 51.460071,6.85589077 L53.204475,7.28421427 C56.4529837,8.05245277 57.8026987,9.35736427 57.8026987,11.6732488 C57.8026987,14.6353798 55.4431965,16.4906068 51.6904125,16.4906068 C48.1791772,16.4906068 45.8084805,14.6789593 45.6553275,11.8151818 L48.0808492,11.8152965 Z" id="Path"></path>
                                    <path d="M62.9164178,1.95147577 L62.9164178,4.68326527 L65.1115598,4.68326527 L65.1115598,6.55965727 L62.9164178,6.55965727 L62.9164178,12.92345 C62.9164178,13.9120723 63.3559485,14.372768 64.3209068,14.372768 C64.5815058,14.3682239 64.8416832,14.3499234 65.1003525,14.317943 L65.1003525,16.1831278 C64.6665061,16.2641917 64.2255378,16.3009052 63.7842593,16.2927013 C61.4471843,16.2927013 60.5357505,15.4148893 60.5357505,13.1761678 L60.5357505,6.55965727 L58.8573405,6.55965727 L58.8573405,4.68326527 L60.535725,4.68326527 L60.535725,1.95147577 L62.9164178,1.95147577 Z" id="Path"></path>
                                    <path d="M66.382875,10.4556365 C66.382875,6.82363327 68.5219808,4.54133227 71.8576613,4.54133227 C75.2045363,4.54133227 77.3336843,6.82358227 77.3336843,10.4556365 C77.3336843,14.0976103 75.2157435,16.3699408 71.8576613,16.3699408 C68.5007648,16.3699408 66.382875,14.0975975 66.382875,10.4556365 Z M74.9193953,10.4556365 C74.9193953,7.96415902 73.77762,6.49367602 71.8576485,6.49367602 C69.937677,6.49367602 68.7971513,7.97536627 68.7971513,10.4556365 C68.7971513,12.9570718 69.937677,14.4163603 71.8576485,14.4163603 C73.77762,14.4163603 74.9193953,12.9570718 74.9193953,10.4556365 L74.9193953,10.4556365 Z" id="Shape"></path>
                                    <path d="M79.2872137,4.68326527 L81.547113,4.68326527 L81.547113,6.64804027 L81.601938,6.64804027 C81.9170875,5.38322549 83.076007,4.512736 84.3785437,4.56247177 C84.6516029,4.56151836 84.9239087,4.59117297 85.1903617,4.65088027 L85.1903617,6.86718727 C84.8456412,6.761851 84.4860385,6.71348767 84.1257367,6.72400477 C83.4291382,6.69574496 82.7549854,6.97336255 82.2802909,7.48396339 C81.8055963,7.99456422 81.5777851,8.68713597 81.6566737,9.37982977 L81.6566737,16.2267328 L79.2872137,16.2267328 L79.2872137,4.68326527 Z" id="Path"></path>
                                    <path d="M96.1149825,12.836291 C95.7962325,14.9318173 93.7554803,16.369928 91.1444715,16.369928 C87.7863893,16.369928 85.7020703,14.1199993 85.7020703,10.5104105 C85.7020703,6.88961452 87.7975965,4.54131952 91.0448685,4.54131952 C94.2385905,4.54131952 96.2469705,6.73521202 96.2469705,10.23524 L96.2469705,11.047058 L88.0939448,11.047058 L88.0939448,11.1902405 C88.017824,12.0496308 88.3145728,12.9003081 88.9087079,13.5258874 C89.502843,14.1514668 90.3371001,14.4916532 91.199271,14.4599143 C92.3491199,14.5676513 93.4332024,13.9073773 93.8650665,12.8362783 L96.1149825,12.836291 Z M88.1051296,9.39106252 L93.876261,9.39106252 C93.919261,8.61883007 93.6381631,7.8636802 93.1006913,7.30753599 C92.5632196,6.75139178 91.818106,6.44467829 91.0448685,6.46129102 C90.2655143,6.45664011 89.5165907,6.76349742 88.96456,7.31365816 C88.4125294,7.86381889 88.1031327,8.61169699 88.1051296,9.39106252 L88.1051296,9.39106252 Z" id="Shape"></path>
                                </g>
                            </g>
                        </g>
                        <g id="_Group_4" transform="translate(45.000000, 10.000000)" fill="#FFFFFF">
                            <g id="Group">
                                <path d="M3.59329871,0.939857143 C4.59638791,0.867065376 5.57889159,1.25298955 6.27038221,1.99140662 C6.96187283,2.72982369 7.28946347,3.74290045 7.162987,4.75179429 C7.162987,7.20268714 5.85307229,8.61150857 3.59329871,8.61150857 L0.853026857,8.61150857 L0.853026857,0.939857143 L3.59329871,0.939857143 Z M2.03132329,7.52657143 L3.46168043,7.52657143 C4.17853976,7.56990258 4.87654715,7.28429015 5.36189211,6.74903802 C5.84723707,6.21378588 6.06824836,5.48587853 5.96355943,4.76742857 C6.06063175,4.05196012 5.83643766,3.33005942 5.35229608,2.79917226 C4.86815451,2.2682851 4.17473021,1.9839681 3.46168043,2.02398429 L2.03132329,2.02398429 L2.03132329,7.52657143 Z" id="Shape"></path>
                                <path d="M8.49400743,5.71415143 C8.39583678,4.67643221 8.88790066,3.67214392 9.76382882,3.12248233 C10.639757,2.57282074 11.748104,2.57282074 12.6240322,3.12248233 C13.4999603,3.67214392 13.9920242,4.67643221 13.8938536,5.71415143 C13.993892,6.75298577 13.5022773,7.75922192 12.6255725,8.31006681 C11.7488677,8.86091171 10.6389933,8.86091171 9.76228852,8.31006681 C8.88558371,7.75922192 8.39396896,6.75298577 8.49400743,5.71415143 Z M12.7316916,5.71415143 C12.7316916,4.45920429 12.1741829,3.72531857 11.1957931,3.72531857 C10.2136654,3.72531857 9.66117886,4.45920429 9.66117886,5.71416429 C9.66117886,6.97916571 10.2137036,7.70739429 11.1957931,7.70739429 C12.1742083,7.70739429 12.7316916,6.97412571 12.7316916,5.71415143 L12.7316916,5.71415143 Z" id="Shape"></path>
                                <polygon id="Path" points="21.0717163 8.61139286 19.8996244 8.61139286 18.7163567 4.34743714 18.6269626 4.34743714 17.4486534 8.61139286 16.2877247 8.61139286 14.7096149 2.82191143 15.8556424 2.82191143 16.8812276 7.23962571 16.9656631 7.23962571 18.1427263 2.82191143 19.22667 2.82191143 20.4037331 7.23962571 20.4931273 7.23962571 21.5137411 2.82191143 22.6436216 2.82191143"></polygon>
                                <path d="M23.9709167,2.82191143 L25.0585857,2.82191143 L25.0585857,3.74162143 L25.1430213,3.74162143 C25.4366385,3.06447164 26.1227369,2.65025246 26.8515034,2.71015714 C27.4157848,2.66725513 27.9687406,2.88615845 28.354244,3.3050598 C28.7397474,3.72396116 28.915964,4.29740198 28.8331393,4.86347143 L28.8331393,8.61132857 L27.7032589,8.61132857 L27.7032589,5.15039143 C27.7032589,4.22001 27.3034581,3.75732 26.4678371,3.75732 C26.0850937,3.73929315 25.7136514,3.89119187 25.4508909,4.17319301 C25.1881303,4.45519414 25.0602577,4.83917273 25.1007971,5.22446143 L25.1007971,8.61139286 L23.9709167,8.61139286 L23.9709167,2.82191143 Z" id="Path"></path>
                                <polygon id="Path" points="30.6335076 0.561857143 31.763388 0.561857143 31.763388 8.61138 30.6335076 8.61138"></polygon>
                                <path d="M33.3340473,5.71415143 C33.235952,4.67636432 33.7280935,3.67205061 34.6040867,3.12238055 C35.4800799,2.57271048 36.5884839,2.57271048 37.464477,3.12238055 C38.3404702,3.67205061 38.8326117,4.67636432 38.7345164,5.71415143 C38.8344278,6.75302296 38.342723,7.75923067 37.4659747,8.31005131 C36.5892264,8.86087194 35.4793374,8.86087194 34.602589,8.31005131 C33.7258407,7.75923067 33.2341359,6.75302296 33.3340473,5.71415143 L33.3340473,5.71415143 Z M37.5717314,5.71415143 C37.5717314,4.45920429 37.0142227,3.72531857 36.035833,3.72531857 C35.0537053,3.72531857 34.5012187,4.45920429 34.5012187,5.71416429 C34.5012187,6.97916571 35.0537434,7.70739429 36.035833,7.70739429 C37.0142354,7.70739429 37.5717314,6.97412571 37.5717314,5.71415143 L37.5717314,5.71415143 Z" id="Shape"></path>
                                <path d="M39.9240014,6.97412571 C39.9240014,5.93199 40.691334,5.33120143 42.05339,5.24581714 L43.6041896,5.15541857 L43.6041896,4.6557 C43.6041896,4.04422714 43.2043889,3.69894857 42.4320977,3.69894857 C41.8013547,3.69894857 41.3643011,3.93311571 41.2388874,4.34243571 L40.1450139,4.34243571 C40.260485,3.34801286 41.1855001,2.71018286 42.484239,2.71018286 C43.9195674,2.71018286 44.7291114,3.43275429 44.7291114,4.6557 L44.7291114,8.61140571 L43.6414424,8.61140571 L43.6414424,7.79779286 L43.5520483,7.79779286 C43.1826329,8.39195529 42.5256922,8.73920987 41.8323903,8.70679286 C41.3463691,8.75791519 40.8616433,8.59874228 40.4980461,8.26862457 C40.1344489,7.93850687 39.9259163,7.46825569 39.9240014,6.97412571 L39.9240014,6.97412571 Z M43.6041896,6.47942143 L43.6041896,5.99540143 L42.206114,6.0858 C41.4176757,6.13915714 41.0600864,6.41036571 41.0600864,6.92075571 C41.0600864,7.44181714 41.5070699,7.74504 42.1217293,7.74504 C42.4855944,7.78228697 42.8488293,7.66861078 43.1282816,7.43003433 C43.407734,7.19145788 43.579475,6.84840993 43.6041896,6.47942143 Z" id="Shape"></path>
                                <path d="M46.2140891,5.71415143 C46.2140891,3.88477286 47.1440756,2.72586857 48.5905671,2.72586857 C49.3209733,2.69183589 50.0050664,3.08760797 50.346232,3.74158286 L50.4306676,3.74158286 L50.4306676,0.561857143 L51.560548,0.561857143 L51.560548,8.61138 L50.4778503,8.61138 L50.4778503,7.69668429 L50.3884561,7.69668429 C50.0215017,8.34523326 49.3289805,8.73431547 48.5905799,8.70679286 C47.1341457,8.70685714 46.2140891,7.54792714 46.2140891,5.71415143 Z M47.3812606,5.71415143 C47.3812606,6.94211143 47.9536577,7.68102429 48.9109544,7.68102429 C49.8632544,7.68102429 50.4518114,6.93145286 50.4518114,5.71917857 C50.4518114,4.51256143 49.8570753,3.75230571 48.9109544,3.75230571 C47.9598241,3.75230571 47.3812224,4.49623286 47.3812224,5.71415143 L47.3812606,5.71415143 Z" id="Shape"></path>
                                <path d="M56.2352857,5.71415143 C56.1371151,4.67643221 56.6291789,3.67214392 57.5051071,3.12248233 C58.3810353,2.57282074 59.4893823,2.57282074 60.3653105,3.12248233 C61.2412386,3.67214392 61.7333025,4.67643221 61.6351319,5.71415143 C61.7351703,6.75298577 61.2435556,7.75922192 60.3668508,8.31006681 C59.4901459,8.86091171 58.3802716,8.86091171 57.5035668,8.31006681 C56.626862,7.75922192 56.1352472,6.75298577 56.2352857,5.71415143 L56.2352857,5.71415143 Z M60.4729571,5.71415143 C60.4729571,4.45920429 59.9154611,3.72531857 58.9370714,3.72531857 C57.9549437,3.72531857 57.4024571,4.45920429 57.4024571,5.71416429 C57.4024571,6.97916571 57.9549819,7.70739429 58.9370714,7.70739429 C59.9154739,7.70739429 60.4729571,6.97412571 60.4729571,5.71415143 Z" id="Shape"></path>
                                <path d="M63.1511579,2.82191143 L64.2388269,2.82191143 L64.2388269,3.74162143 L64.3232624,3.74162143 C64.6168796,3.06447164 65.3029781,2.65025246 66.0317446,2.71015714 C66.5960259,2.66725513 67.1489817,2.88615845 67.5344851,3.3050598 C67.9199885,3.72396116 68.0962052,4.29740198 68.0133804,4.86347143 L68.0133804,8.61132857 L66.8835,8.61132857 L66.8835,5.15039143 C66.8835,4.22001 66.4836993,3.75732 65.6480783,3.75732 C65.2653348,3.73929315 64.8938925,3.89119187 64.631132,4.17319301 C64.3683715,4.45519414 64.2404988,4.83917273 64.2810383,5.22446143 L64.2810383,8.61139286 L63.1511579,8.61139286 L63.1511579,2.82191143 Z" id="Path"></path>
                                <path d="M74.3978463,1.38051 L74.3978463,2.84828143 L75.6382393,2.84828143 L75.6382393,3.81069 L74.3978463,3.81069 L74.3978463,6.78767143 C74.3978463,7.39411714 74.6449357,7.65966857 75.2073903,7.65966857 C75.3513867,7.65920255 75.4952385,7.65039814 75.6382393,7.63329857 L75.6382393,8.58502286 C75.4353314,8.62173092 75.2297492,8.64126005 75.0236307,8.64340714 C73.7671033,8.64340714 73.2667199,8.19641571 73.2667199,7.08021 L73.2667199,3.81063857 L72.3578519,3.81063857 L72.3578519,2.84823 L73.2667199,2.84823 L73.2667199,1.38051 L74.3978463,1.38051 Z" id="Path"></path>
                                <path d="M77.1815756,0.561857143 L78.3015261,0.561857143 L78.3015261,3.75229286 L78.3909203,3.75229286 C78.6986413,3.06921672 79.3967476,2.6544697 80.1365917,2.71518429 C80.6976688,2.68431079 81.2431393,2.90803335 81.6244292,3.32541496 C82.0057191,3.74279656 82.1831148,4.31036439 82.1082977,4.87352571 L82.1082977,8.61139286 L80.9772857,8.61139286 L80.9772857,5.15539286 C80.9772857,4.23065571 80.5513571,3.76232143 79.7530399,3.76232143 C79.359951,3.72972043 78.972674,3.87423123 78.6947438,4.15722022 C78.4168137,4.4402092 78.2765704,4.8328204 78.3115069,5.23009286 L78.3115069,8.61139286 L77.1816264,8.61139286 L77.1815756,0.561857143 Z" id="Path"></path>
                                <path d="M88.6964464,7.04819571 C88.3796154,8.14025505 87.3345543,8.84584676 86.2156731,8.72313429 C85.4522616,8.74351311 84.7185805,8.42352518 84.2092931,7.84807092 C83.7000056,7.27261666 83.4665984,6.49987192 83.571,5.73486429 C83.4693714,4.96773061 83.701904,4.19374766 84.2083555,3.6134318 C84.714807,3.03311594 85.4453426,2.70357011 86.2107019,2.71017 C87.8037129,2.71017 88.7647349,3.81074143 88.7647349,5.62874143 L88.7647349,6.02742857 L84.7219861,6.02742857 L84.7219861,6.09145714 C84.6862107,6.5210659 84.8313045,6.94600425 85.1215844,7.26176661 C85.4118644,7.57752898 85.820396,7.75481647 86.2467087,7.75002857 C86.7994901,7.81713602 87.3375849,7.53985677 87.6087774,7.04815714 L88.6964464,7.04819571 Z M84.7219607,5.18240571 L87.6137106,5.18240571 C87.6425121,4.78949199 87.5058915,4.40254938 87.2375164,4.11693312 C86.9691413,3.83131686 86.5939708,3.67358943 86.2044591,3.68262 C85.8096704,3.67760432 85.4296098,3.8340273 85.1504911,4.11640571 C84.8713723,4.39878411 84.7168535,4.78318337 84.7219861,5.18240571 L84.7219607,5.18240571 Z" id="Shape"></path>
                            </g>
                        </g>
                    </g>
                </g>
            </g>
        </g>
    </g>
</svg>